<?xml version="1.0" encoding="UTF-8"?>
<svg width="161px" height="48px" viewBox="0 0 161 48" version="1.1" xmlns="http://www.w3.org/2000/svg" xmlns:xlink="http://www.w3.org/1999/xlink">
    <title>Doffee</title>
    <g id="Page-1" stroke="none" stroke-width="1" fill="none" fill-rule="evenodd">
        <g id="Large-Devices:-Desktops---12-col" transform="translate(-50.000000, -17.000000)" fill="#FFFFFF" fill-rule="nonzero">
            <g id="Doffee" transform="translate(50.606061, 17.300000)">
                <g transform="translate(-0.000000, 0.000000)">
                    <path d="M12.4666667,36.7 C26.8393939,36.7 36.6272727,27.8 36.6272727,16.2 C36.6272727,7.2 29.9818182,0.7 18.2878788,0.7 L5.87272727,0.7 L0,36.7 L12.4666667,36.7 Z M16.9484848,8.4 C23.6969697,8.4 26.9939394,12.35 26.9939394,17.2 C26.9939394,23.4 21.9969697,29 13.6,29 L10.6636364,29 L14.0636364,8.4 L16.9484848,8.4 Z" id="Shape"></path>
                    <path d="M54.2969697,11 C45.2818182,11 38.0181818,17.55 38.0181818,26.1 C38.0181818,32.65 42.7060606,37.4 50.0212121,37.4 C58.9848485,37.4 66.3,30.85 66.3,22.35 C66.3,15.75 61.5606061,11 54.2969697,11 Z M51.2060606,30 C48.5787879,30 46.7242424,28.1 46.7242424,25.15 C46.7242424,21.1 49.7636364,18.4 53.1121212,18.4 C55.6878788,18.4 57.5939394,20.3 57.5939394,23.25 C57.5939394,27.3 54.5030303,30 51.2060606,30 Z" id="Shape"></path>
                    <path d="M70.1121212,11.7 L68.9787879,18.6 L72.1212121,18.6 L67.3818182,47.7 L76.5515152,47.7 L81.2909091,18.6 L86.4939394,18.6 L87.6272727,11.7 L82.0121212,11.7 L82.1666667,10.8 C82.5272727,8.55 84.2272727,7.4 86.5454545,7.4 C87.8333333,7.4 88.7090909,7.6 89.1727273,7.75 L90.3575758,0.3 C89.8939394,0.2 88.5030303,0 86.8030303,0 C79.3333333,0 74.9030303,3.8 73.9242424,9.75 L73.6151515,11.7 L70.1121212,11.7 Z" id="Path"></path>
                    <path d="M89.1212121,11.7 L87.9878788,18.6 L91.130303,18.6 L86.3909091,47.7 L95.5606061,47.7 L100.3,18.6 L105.50303,18.6 L106.636364,11.7 L101.021212,11.7 L101.175758,10.8 C101.536364,8.55 103.236364,7.4 105.554545,7.4 C106.842424,7.4 107.718182,7.6 108.181818,7.75 L109.366667,0.3 C108.90303,0.2 107.512121,0 105.812121,0 C98.3424242,0 93.9121212,3.8 92.9333333,9.75 L92.6242424,11.7 L89.1212121,11.7 Z" id="Path"></path>
                    <path d="M121.936364,11 C113.539394,11 106.275758,17.6 106.275758,26.15 C106.275758,32.7 110.912121,37.4 119.154545,37.4 C123.893939,37.4 127.5,36.5 128.993939,35.85 L130.178788,28.4 C129.09697,28.9 124.975758,30 121.215152,30 C117.712121,30 115.6,28.65 115.70303,26 L131.415152,26 C131.569697,25.35 132.393939,23.2 132.393939,20.9 C132.393939,15.55 129.09697,11 121.936364,11 Z M123.687879,21.9 L116.321212,21.9 C116.733333,19.65 118.330303,17.85 120.751515,17.85 C123.224242,17.85 124.1,19.65 123.687879,21.9 Z" id="Shape"></path>
                    <path d="M149.754545,11 C141.357576,11 134.093939,17.6 134.093939,26.15 C134.093939,32.7 138.730303,37.4 146.972727,37.4 C151.712121,37.4 155.318182,36.5 156.812121,35.85 L157.99697,28.4 C156.915152,28.9 152.793939,30 149.033333,30 C145.530303,30 143.418182,28.65 143.521212,26 L159.233333,26 C159.387879,25.35 160.212121,23.2 160.212121,20.9 C160.212121,15.55 156.915152,11 149.754545,11 Z M151.506061,21.9 L144.139394,21.9 C144.551515,19.65 146.148485,17.85 148.569697,17.85 C151.042424,17.85 151.918182,19.65 151.506061,21.9 Z" id="Shape"></path>
                </g>
            </g>
        </g>
    </g>
</svg>